<?xml version="1.0" encoding="UTF-8" standalone="no"?><!DOCTYPE svg PUBLIC "-//W3C//DTD SVG 1.1//EN" "http://www.w3.org/Graphics/SVG/1.1/DTD/svg11.dtd"><svg width="100%" height="100%" viewBox="0 0 1418 1418" version="1.1" xmlns="http://www.w3.org/2000/svg" xmlns:xlink="http://www.w3.org/1999/xlink" xml:space="preserve" xmlns:serif="http://www.serif.com/" style="fill-rule:evenodd;clip-rule:evenodd;stroke-linecap:round;stroke-linejoin:round;stroke-miterlimit:1.5;"><rect x="-373.726" y="-75.035" width="1962.58" height="1648.47" style="fill:#fff;stroke:#ebebeb;stroke-width:15.56px;"/><g><path d="M825.423,304.546c0,0 -14.681,5.654 7.562,20.037c21.504,13.904 79.435,36.402 108.799,44.855c13.985,4.026 -1.785,18.596 8.391,26.71c24.341,19.409 37.548,36.972 39.286,39.202c5.201,6.671 11.608,15.877 16.452,26.033c2.913,6.109 28.491,4.838 31.547,11.76c21.636,49.004 22.291,120.887 18.931,123.899c-12.1,10.848 -36.112,30.849 -64.758,46.733c-34.88,19.343 -65.875,45.022 -99.067,60.127c-6.006,2.734 -0.813,16.392 -0.332,22.84c4.789,64.195 34.768,148.326 44.173,196.767c2.543,13.094 0.971,34.267 4.219,47.605c2.999,12.311 19.832,15.584 23.361,27.772c3.623,12.515 1.7,30.655 5.457,43.029c6.735,22.179 35.369,29.109 37.867,50.475c8.861,75.782 36.709,149.88 41.871,161.37c6.026,13.412 39.195,47.451 41.433,59.781c3.303,18.199 -4.947,28.463 -23.058,35.785c-19.833,8.018 -38.051,1.201 -42.746,-6.312c-8.02,-12.837 -3.754,-41.624 -13.482,-59.72c-7.263,-13.512 -40.06,-50.105 -48.274,-64.069c-35.983,-61.175 -51.476,-98.339 -54.069,-105.877c-5.209,-15.143 2.966,-16.908 -9.156,-40.139c-8.992,-17.234 -28.628,-35.731 -37.549,-54.065c-7.409,-15.227 -5.853,-37.843 -12.966,-51.069c-35.533,-66.066 -59.956,-88.415 -69.756,-73.966c-9.511,14.023 -13.556,89.584 -16.851,119.214c-2.268,20.403 24.814,125.792 25.686,146.265c1.486,34.858 11.364,59.071 11.674,88.202c0.29,27.394 16.945,85.159 0.523,85.005c-47.929,-0.45 -128.939,-3.33 -128.194,-5.25c1.765,-4.547 6.223,-18.101 12.091,-20.359c10.851,-4.176 26.525,-10.973 38.905,-19.482c17.256,-11.86 24.633,-29.532 22.54,-34.568c-17.332,-41.696 -55.557,-141.22 -57.697,-185.797c-0.939,-19.554 -37.283,-31.798 -37.716,-34.581c-4.698,-30.154 -9.179,-89.936 -7.453,-155.398c2.986,-113.29 18.806,-243.591 9.75,-266.769c-6.727,-17.217 -42.925,3.845 -56.11,5.124c-61.894,6.001 -114.803,1.132 -147.558,2.568c-48.572,2.13 -54.399,14.18 -81.192,9.825c-73.546,-11.954 -28.808,-49.143 -25.201,-49.395c9.556,-0.665 23.257,-1.203 33.323,0.14c13.849,1.849 15.258,9.483 36.405,6.494c36.399,-5.145 82.059,-26.668 121.941,-42.871c26.432,-10.739 39.952,-49.387 62.903,-61.41c11.784,-6.173 7.207,-13.575 17.558,-19.891c17.294,-10.553 9.449,-49.601 22.823,-57.909c24.817,-15.418 33.26,-28.196 34.688,-30.005c4.381,-5.544 9.248,-11.672 14.468,-16.85c6.77,-6.717 40.246,-18.543 34.838,-31.828c-2.733,-6.712 -5.922,-7.031 -12.764,-14.017c-5.325,-5.437 -13.862,-31.443 -20.432,-37.053c-23.16,-19.777 -47.648,-18.05 -48.71,-19.299c-3.484,-4.096 -7.929,-8.898 -12.067,-13.625c-8.097,-9.252 -15.016,-18.216 -11.247,-21.04c8.037,-6.021 29.718,-25.491 34.151,-27.77c13.921,-7.154 27.926,-11.143 39.469,-16.915c3.577,-1.789 17.855,-0.94 19.17,-2.255c5.271,-5.271 9.28,-28.627 30.447,-27.064c11.843,0.874 22.366,12.874 25.937,14.659c9.246,4.624 22.204,-6.377 30.447,-2.255c9.27,4.635 12.826,53.422 15.787,56.383c3.457,3.458 14.13,4.979 18.043,9.022c7.615,7.867 21.324,19.12 30.447,23.681c6.982,3.491 8.86,6.605 13.532,11.277c4.452,4.452 5.511,21.935 4.51,25.936c-0.865,3.463 0.175,13.357 -2.255,15.787c-3.45,3.451 -47.334,1.1 -50.745,4.511c-1.143,1.143 0,-1.796 0,-0Z" style="fill-opacity:0;"/><path d="M698.669,156.239c-2.285,0.121 -4.695,0.283 -6.346,0.462c-4.343,0.472 -7.873,1.573 -9.987,2.63c-11.594,5.797 -25.657,9.816 -39.64,17.002c-4.725,2.429 -28.059,22.9 -36.626,29.317c-5.358,4.015 -8.182,9.543 -8.003,16.717c0.082,3.298 1.044,7.532 3.526,12.17c2.593,4.848 7.535,11.167 13.069,17.489c4.082,4.664 8.469,9.399 11.906,13.44c1.323,1.555 4.576,5.078 11.426,6.197c4.005,0.654 21.774,0.494 38.658,14.58c0.635,1.152 4.536,8.277 6.757,13.111c4.647,10.117 9.705,19.874 13.123,23.363c1.671,1.707 3.164,3.093 4.515,4.277c-2.029,1.472 -4.325,3.058 -6.143,4.111c-8.644,5.008 -16.953,9.686 -20.271,12.978c-5.711,5.667 -11.069,12.345 -15.862,18.412c-1.243,1.573 -8.646,12.612 -30.227,26.019c-8.696,5.403 -14.324,17.661 -16.806,32.893c-1.038,6.371 -1.784,13.33 -3.52,19.401c-0.623,2.178 -0.69,4.513 -2.377,5.542c-6.028,3.678 -9.374,7.622 -11.825,11.558c-0.937,1.504 -1.719,3.01 -2.447,4.529c-0.49,1.021 -0.537,2.322 -2.3,3.246c-13.454,7.048 -24.688,21.365 -35.888,36.028c-7.605,9.956 -14.973,20.402 -25.493,24.676c-38.573,15.672 -82.63,36.788 -117.835,41.765c-9.73,1.375 -13.085,-0.793 -17.356,-2.561c-3.994,-1.654 -8.36,-3.156 -14.32,-3.951c-11.125,-1.485 -26.266,-0.987 -36.828,-0.251c-1.827,0.127 -8.499,1.745 -15.212,7.59c-9.25,8.053 -20.182,24.551 -17.093,40.046c2.491,12.492 14.533,29.497 55.927,36.225c13.422,2.181 22.644,1.118 32.77,-1.164c11.458,-2.583 24.439,-7.246 51.969,-8.453c32.958,-1.445 86.195,3.405 148.473,-2.633c6.118,-0.593 16.613,-4.515 27.378,-8.142c3.854,-1.299 7.764,-2.518 11.404,-3.202l0.57,-0.084c1.041,7.291 0.679,19.409 0.177,34.887c-1.734,53.421 -10.114,141.102 -12.206,220.443c-1.76,66.782 2.862,127.768 7.654,158.53c0.41,2.632 1.469,5.997 4.488,9.342c1.178,1.305 3.981,3.645 8.388,6.036c4.265,2.314 11.664,5.844 18.037,10.614c1.848,1.383 3.611,2.868 5.042,4.515c0.646,0.744 1.531,1.32 1.574,2.233c2.14,44.554 38.827,142.505 57.346,187.579c-1.919,3.463 -7.499,12.707 -14.678,17.641c-11.223,7.713 -25.469,13.8 -35.306,17.586c-4.5,1.732 -9.223,5.443 -12.985,10.97c-4.212,6.188 -7.543,15.41 -9.058,19.314c-1.739,4.48 -1.676,8.986 0.374,13.51c0.679,1.497 4.288,8.959 15.459,10.564c13.25,1.905 84.461,4.412 128.387,4.825c11.227,0.105 19.694,-5.745 23.228,-19.064c2.044,-7.703 1.723,-20.507 -0.099,-34.824c-2.126,-16.696 -5.99,-36.036 -6.124,-48.667c-0.311,-29.312 -10.193,-53.683 -11.688,-88.757c-0.539,-12.638 -10.595,-56.766 -18.202,-94.55c-4.451,-22.112 -8.394,-41.687 -7.575,-49.058c2.285,-20.551 4.908,-63.405 9.524,-92.033c0.653,-4.047 1.197,-7.747 1.794,-10.872c2.025,1.864 4.227,4.05 6.08,6.264c10.217,12.208 22.462,31.314 36.654,57.701c2.743,5.1 3.405,12.112 4.505,19.216c1.699,10.968 3.729,22.16 8.14,31.225c8.986,18.469 28.711,37.14 37.769,54.5c6.247,11.973 5.097,16.22 5.206,21.504c0.093,4.56 0.607,9.514 2.924,16.25c2.668,7.759 18.489,46.073 55.523,109.034c8.145,13.848 40.743,50.086 47.946,63.487c4.862,9.044 4.914,21.417 6.112,32.08c1.292,11.505 3.613,21.696 7.938,28.619c2.772,4.436 7.636,9.109 14.565,12.547c11.538,5.725 29.921,8.546 49.418,0.664c15.933,-6.441 25.937,-15.306 30.924,-26.434c3.532,-7.884 4.771,-17.211 2.712,-28.553c-0.955,-5.264 -5.162,-13.689 -11.809,-22.886c-10.202,-14.117 -26.922,-32.123 -30.87,-40.911c-4.999,-11.125 -31.884,-82.892 -40.463,-156.27c-1.497,-12.805 -8.492,-22.601 -17.914,-31.332c-3.778,-3.5 -7.955,-6.853 -11.867,-10.469c-3.612,-3.34 -7.223,-6.78 -8.718,-11.703c-1.522,-5.014 -1.701,-11.221 -2.059,-17.418c-0.52,-9.011 -1.199,-18.02 -3.334,-25.394c-2.423,-8.372 -7.91,-14.738 -14.662,-20.184c-1.782,-1.437 -3.643,-2.818 -5.425,-4.247c-1.059,-0.85 -2.777,-2.574 -3.159,-2.963c-3.088,-13.127 -1.489,-33.703 -3.967,-46.464c-9.31,-47.953 -39.162,-131.2 -43.903,-194.749c-0.152,-2.038 -0.873,-6.288 -1.504,-9.747c30.519,-15.517 59.633,-38.788 92.007,-56.74c30.042,-16.659 55.239,-37.614 67.929,-48.99c1.588,-1.424 3.708,-3.781 5.132,-7.741c0.773,-2.15 1.75,-6.928 2.026,-13.834c0.918,-22.963 -3.319,-80.423 -21.795,-122.27c-2.261,-5.12 -7.357,-10.31 -15.691,-13.185c-4.55,-1.57 -14.067,-3.496 -18.797,-4.407c-4.96,-9.259 -10.797,-17.572 -15.701,-23.863c-1.786,-2.291 -14.83,-19.675 -38.853,-39.424c0.48,-3.466 1.133,-9.143 0.758,-12.035c-1.11,-8.551 -4.919,-16.562 -18.474,-20.464c-22.012,-6.337 -60.841,-20.817 -86.52,-33.189c5.09,-0.257 9.72,-0.563 12.725,-0.902c8.514,-0.961 13.745,-4.435 15.654,-6.344c2.267,-2.267 4.445,-5.639 5.618,-10.174c1.032,-3.989 1.38,-14.221 1.393,-14.608c0.83,-4.907 0.796,-17.399 -1.598,-26.728c-1.69,-6.587 -4.701,-11.806 -7.668,-14.773c-6.145,-6.145 -8.862,-9.938 -18.046,-14.53c-7.741,-3.871 -19.273,-13.55 -25.735,-20.226c-2.18,-2.253 -5.136,-4.355 -8.676,-6.076c-1.731,-0.842 -4.494,-1.957 -6.857,-2.872c-1.746,-10.595 -6.016,-34.647 -10.277,-44.819c-3.404,-8.124 -8.456,-12.955 -12.732,-15.093c-5.812,-2.906 -12.558,-3.453 -19.829,-1.913c-3.183,0.674 -8.998,2.31 -11.684,3.08c-5.569,-4.261 -20.085,-14.525 -31.358,-15.358c-18.272,-1.348 -29.366,7.61 -36.802,18.491c-1.848,2.704 -3.931,6.476 -5.528,9.523Zm87.441,19.799c-2.785,0.773 -5.988,1.607 -8.195,2.015c-7.098,1.314 -13.9,0.747 -20.025,-2.316c-1.985,-0.992 -5.725,-3.98 -10.301,-7.617c-2.514,-1.999 -5.53,-4.989 -9.147,-5.256c-2.791,-0.206 -4.263,1.581 -5.42,3.234c-1.344,1.919 -2.393,3.981 -3.339,5.858c-2.891,5.74 -5.66,10.463 -8.13,12.933c-1.608,1.607 -5.655,4.755 -12.442,5.539c-2.843,0.329 -10.768,0.742 -13.072,0.856c-11.125,5.283 -24.336,9.193 -37.466,15.941c-2.789,1.433 -12.779,10.274 -21.303,17.61c1.181,1.517 2.418,3.048 3.528,4.316c2.602,2.973 5.323,5.976 7.854,8.822c9.9,1.466 32.498,6.421 51.132,22.334c3.791,3.237 8.68,10.774 12.901,19.644c3.194,6.713 8.488,17.563 9.187,18.992c8.847,8.951 12.296,10.202 15.915,19.092c4.186,10.282 1.669,20.909 -7.634,30.26c-5.179,5.206 -13.124,10.219 -20.636,14.462c-4.113,2.324 -9.928,5.805 -10.7,6.268c-4.623,4.627 -8.905,10.081 -12.793,15.002c-1.585,2.007 -10.748,16.029 -37.616,33.021c-0.433,1.389 -1.517,4.977 -1.965,7.46c-0.997,5.528 -1.734,11.605 -2.851,17.403c-2.853,14.803 -8.935,27.544 -19.66,34.088c-1.975,1.206 -1.733,2.944 -2.39,4.243c-0.866,1.711 -1.843,3.403 -3.046,5.088c-2.701,3.785 -6.455,7.633 -13.11,11.119c-9.5,4.977 -16.494,15.99 -24.403,26.345c-11.505,15.063 -24.105,29.304 -40.022,35.771c-41.19,16.735 -88.454,38.664 -126.047,43.977c-14.882,2.104 -22.794,0.126 -29.447,-2.36c-3.599,-1.344 -6.414,-3.411 -11.686,-4.115c-7.307,-0.976 -16.756,-0.78 -24.628,-0.347l-5.265,6.497c0.373,0.322 0.816,0.677 1.21,0.932c2.617,1.695 6.157,3.158 10.729,4.524c4.203,1.255 9.144,2.356 14.916,3.294c10.504,1.707 16.88,-0.038 25.409,-2.182c11.652,-2.929 26.222,-6.711 52.236,-7.851c32.552,-1.428 85.133,3.459 146.643,-2.504c3.701,-0.359 9.564,-2.978 15.983,-5.227c9.779,-3.428 20.326,-6.475 28.746,-6.7c14.149,-0.377 24.397,5.393 29.233,17.768c3.122,7.992 4.487,27.014 3.633,53.315c-1.732,53.37 -10.109,140.966 -12.199,220.231c-1.552,58.857 1.975,113.03 6.133,144.383c5.703,3.081 14.878,8.352 21.197,13.503c10.251,8.356 17.265,19.141 17.825,30.803c2.075,43.211 39.586,139.545 56.387,179.964c1.644,3.954 2.614,10.965 -0.233,19.567c-3.344,10.108 -12.588,25.039 -28.506,35.979c-5.685,3.907 -11.998,7.497 -18.29,10.681c23.098,0.999 52.415,2.131 75.086,2.567c-0.095,-4.351 -0.337,-9.994 -0.924,-14.605c-2.299,-18.065 -6.255,-39.018 -6.4,-52.684c-0.307,-28.951 -10.182,-53.006 -11.658,-87.647c-0.598,-14.021 -13.949,-68.713 -21.031,-107.136c-3.527,-19.131 -5.338,-34.831 -4.565,-41.788c2.327,-20.931 5.053,-64.57 9.755,-93.725c2.543,-15.773 6.349,-27.959 9.983,-33.318c4.252,-6.269 9.734,-9.757 15.855,-11.169c5.303,-1.223 11.481,-0.892 18.344,2.21c6.719,3.037 15.201,9.658 24.616,20.906c11.271,13.467 24.953,34.433 40.608,63.541c3.65,6.787 5.801,15.42 7.341,24.684c1.525,9.183 2.179,19.269 5.947,27.013c8.855,18.2 28.404,36.522 37.33,53.629c8.032,15.395 8.972,23.788 9.135,30.73c0.085,3.616 -0.752,6.567 1.046,11.794c2.517,7.319 17.684,43.333 52.616,102.722c8.282,14.078 41.278,51.027 48.602,64.65c5.862,10.906 7.969,24.922 9.358,38.257c0.793,7.623 0.654,14.973 3.115,19.699c0.796,0.405 3.25,1.599 5.065,1.99c4.76,1.025 10.69,0.713 16.884,-1.791c5.824,-2.354 10.423,-4.369 12.246,-8.437c0.937,-2.09 0.838,-4.567 0.342,-7.507c-0.686,-1.114 -6.031,-9.737 -10.585,-15.638c-11.542,-14.956 -25.779,-32.016 -29.71,-40.766c-5.326,-11.855 -34.137,-88.284 -43.278,-166.472c-0.421,-3.599 -2.996,-5.976 -5.538,-8.473c-3.423,-3.361 -7.342,-6.503 -11.1,-9.844c-9.001,-8.001 -16.94,-17.08 -20.598,-29.129c-2.235,-7.36 -2.974,-16.409 -3.499,-25.505c-0.363,-6.282 -0.534,-12.599 -2.023,-17.74c-0.298,-1.029 -1.427,-1.409 -2.238,-2.093c-2.233,-1.886 -4.668,-3.629 -6.933,-5.481c-6.871,-5.62 -12.262,-12.218 -14.381,-20.917c-3.303,-13.564 -1.808,-35.088 -4.394,-48.405c-9.499,-48.928 -39.606,-133.945 -44.443,-198.785c-0.391,-5.235 -3.035,-14.62 -2.451,-20.835c0.877,-9.345 5.577,-15.767 12.908,-19.103c32.799,-14.926 63.371,-40.395 97.838,-59.508c23.882,-13.243 44.367,-29.509 56.813,-40.274c-0.351,-13.697 -2.589,-67.412 -16.364,-103.088c-2.607,-0.58 -6.368,-1.396 -8.855,-1.871c-5.146,-0.983 -9.875,-2.237 -13.199,-3.767c-5.891,-2.711 -9.463,-6.734 -11.368,-10.729c-4.252,-8.915 -9.908,-16.976 -14.473,-22.832c-1.611,-2.066 -13.865,-18.319 -36.417,-36.301c-8.166,-6.512 -10.488,-14.401 -10.185,-22.793c0.032,-0.871 0.136,-1.955 0.274,-3.09c-32.125,-10.107 -85.17,-31.285 -105.881,-44.677c-19.241,-12.441 -20.653,-24.097 -20.187,-30.282c0.557,-7.404 4.893,-12.878 8.873,-16.26c3.857,-4.084 9.183,-5.85 12.028,-6.013l0.655,-0.024c1.206,-0.276 2.499,-0.496 3.879,-0.65c6.863,-0.765 22.25,-1.369 32.211,-1.697c0.115,-1.292 0.247,-2.472 0.393,-3.343l-0.046,0.237l-1.431,-12.376c-2.061,-2.337 -3.487,-4.275 -7.317,-6.19c-10.127,-5.064 -25.257,-17.166 -34.184,-26.152c-1.451,-0.544 -7.448,-2.812 -10.193,-4.062c-3.639,-1.658 -6.569,-3.684 -8.626,-5.742c-1.452,-1.452 -4.791,-6.26 -6.429,-14.37c-1.429,-7.074 -3.129,-19.623 -5.526,-30.463c-0.395,-1.787 -0.973,-3.85 -1.546,-5.741Zm42.067,111.7c-1.101,3.246 -9.919,30.135 -2.086,33.555l0.164,-0.006c2.222,-0.127 6.08,-1.205 9.446,-3.701c0.629,-0.81 1.202,-1.767 1.596,-2.839c0.838,-2.281 -0.464,-9.043 -0.464,-9.043c-0,-0 2.195,1.976 4.735,3.725c0.551,-1.892 0.691,-3.831 0.585,-5.635l-13.515,-15.959l-0.337,-0.077l-0.124,-0.02Zm-9.121,0.651c-0.76,0.267 -1.583,0.635 -2.448,1.152c0.329,-0.187 0.635,-0.346 0.911,-0.478c0.844,-0.406 1.5,-0.66 1.537,-0.674Zm0.455,-0.155l-0.453,0.154l0.01,0.1l0.435,-0.194l0.524,-0.209l-0.516,0.149Z"/><path d="M749.869,673.211c0,6.521 -4.213,38.075 0,42.288c25.722,25.722 85.06,33.346 115.586,2.819c3.596,-3.595 11.277,-7.326 11.277,-14.096" style="fill-opacity:0;"/><path d="M859.804,700.357c-1.722,1.395 -5.186,4.239 -6.628,5.681c-11.804,11.804 -29.371,15.638 -46.28,14.628c-15.638,-0.933 -31.038,-6.012 -41.426,-14.463c-0.044,-2.173 -0.07,-5.401 0.051,-7.956c0.483,-10.207 1.715,-21.395 1.715,-25.036c-0,-9.584 -7.782,-17.366 -17.367,-17.366c-9.584,0 -17.366,7.782 -17.366,17.366c0,5.468 -2.656,27.736 -1.526,38.682c0.825,7.984 4.036,13.309 6.613,15.886c15.486,15.487 40.906,25.986 67.236,27.558c26.823,1.602 54.185,-6.015 72.909,-24.739c2.358,-2.358 6.257,-4.848 9.053,-7.998c4.524,-5.099 7.31,-11.192 7.31,-18.378c0,-9.584 -7.781,-17.366 -17.366,-17.366c-8.256,0 -15.174,5.774 -16.928,13.501Z"/><path d="M686.773,249.096c-4.224,0 3.684,6.271 3.048,5.636c-4.847,-4.847 -5.937,-19.999 -2.255,-23.681c4.594,-4.595 39.706,-14.883 49.617,-12.405c9.87,2.468 16.286,6.137 22.554,12.405c1.663,1.663 7.639,-0.255 9.021,1.127c4.009,4.009 32.696,13.526 34.958,15.788c4.115,4.115 23.681,40.314 23.681,48.489" style="fill-opacity:0;"/><path d="M668.47,245.795c-0.686,2.97 -0.566,6.301 0.676,9.975c0.699,2.068 2.118,4.782 4.299,7.323c2.238,2.61 5.532,5.267 6.29,5.804c7.384,5.233 13.673,2.905 14.58,2.664c7.593,-2.017 11.703,-6.94 12.742,-14.385c0.147,-1.054 1.706,-6.912 -3.635,-13.28l-0.119,-0.998c5.294,-1.852 13.573,-4.591 19.504,-5.821c3.911,-0.811 9.831,-1.342 10.774,-1.423c5.977,1.567 9.996,3.797 13.876,7.676c2.12,2.12 4.857,3.87 8.293,4.884c1.519,0.448 4.597,0.643 7.055,0.72c1.883,1.09 4.083,2.222 6.534,3.313c6.297,2.8 17.484,7.29 22.506,9.29l18.235,36.217l-0.003,-0.096c0.613,9.025 8.139,16.164 17.32,16.164c9.584,-0 17.366,-7.782 17.366,-17.367c-0,-3.697 -1.916,-11.422 -5.8,-20.277c-6.969,-15.889 -19.628,-37.153 -22.968,-40.492c-1.064,-1.064 -4.007,-3.365 -8.767,-5.464c-6.465,-2.849 -25.598,-10.754 -27.578,-11.571c-1.795,-1.477 -4.003,-2.719 -6.697,-3.508c-1.113,-0.325 -3.403,-0.507 -5.532,-0.605c-7.167,-6.05 -14.99,-9.981 -26.026,-12.74c-7.594,-1.898 -26.955,0.845 -42.351,5.593c-11.739,3.619 -21.074,8.696 -23.758,11.38c-3.679,3.679 -7.253,11.395 -7.279,20.761c-0.006,2.053 0.155,4.162 0.463,6.263Zm5.58,16.554c0.782,1.5 1.905,3.076 3.491,4.663c-1.241,-1.242 -2.42,-2.827 -3.491,-4.663Zm20.035,2.497c-1.908,0.892 -4.004,1.444 -6.212,1.578c2.531,-0.132 4.562,-0.731 6.212,-1.578Z"/><path d="M668.395,667.458c4.744,6.778 62.673,20.537 74.427,14.66c11.859,-5.93 37.03,-56.292 53,-64.277c12.158,-6.079 27.876,-26.583 36.085,-29.319c5.245,-1.749 13.853,-6.936 19.255,-6.936c2.006,0 6.983,1.147 8.937,0.17c10.505,-5.253 15.58,-18.963 22.553,-25.937c1.066,-1.066 5.823,-0.184 6.766,-1.128c6.742,-6.741 16.891,-11.251 22.554,-16.915c2.173,-2.173 18.01,0 21.425,0c10.144,0 97.954,-1.281 99.235,0c4.393,4.393 11.401,12.653 14.66,19.171c0.493,0.986 -0.165,1.127 1.128,1.127" style="fill-opacity:0;"/><path d="M882.034,538.231c-1.49,0.167 -2.98,0.383 -3.797,0.632c-3.426,1.043 -5.994,2.806 -7.864,4.676c-3.508,3.508 -6.759,8.275 -10.092,13.27c-1.741,2.609 -3.285,5.583 -5.507,7.676c-1.409,-0.136 -2.938,-0.265 -3.612,-0.265c-3.269,0 -7.166,0.713 -11.241,2.127c-4.648,1.612 -9.886,4.493 -13.505,5.699c-4.019,1.34 -9.477,4.792 -15.214,9.932c-7.139,6.397 -15.74,16.627 -23.147,20.33c-9.584,4.792 -22.894,21.458 -34.623,38.658c-6.275,9.203 -15.504,21.225 -18.433,25.006c-3.121,-0.058 -10.302,-0.278 -15.616,-1.074c-14.046,-2.104 -36.311,-9.328 -39.354,-10.33c-5.869,-5.31 -14.836,-6.066 -21.593,-1.337c-7.852,5.497 -9.764,16.334 -4.268,24.186c1.601,2.287 4.846,5.535 10.271,8.258c5.249,2.634 14.229,5.733 24.478,8.379c14.56,3.758 31.754,6.696 43.421,6.849c8.108,0.106 14.462,-1.358 18.25,-3.252c6.113,-3.056 15.993,-14.384 25.738,-28.603c6.53,-9.526 13.565,-20.281 20.158,-28.336c2.683,-3.279 4.86,-6.216 7.104,-7.338c7.339,-3.67 15.979,-11.411 23.796,-18.93c3.886,-3.737 10.126,-9.091 10.929,-9.778c3.979,-1.441 11.67,-4.813 13.48,-5.611c2.209,0.201 6.702,0.548 8.923,0.299c2.81,-0.314 5.221,-1.101 7.149,-2.066c6.538,-3.268 11.933,-8.406 16.497,-14.372c2.737,-3.579 5.002,-7.589 7.399,-10.942c1.015,-0.14 1.917,-0.302 2.455,-0.474c3.284,-1.05 5.712,-2.759 7.482,-4.529c4.96,-4.96 11.766,-8.712 17.269,-12.607c4.218,0.268 12.602,0.779 14.43,0.779c8.366,-0 70.004,-0.898 91.235,-0.461c2.711,3.137 5.53,6.836 7.127,10.031c-0.981,-1.961 -1.423,-4.502 -1.423,-4.502c0,0 2.257,6.852 3.887,8.818c1.575,1.901 4.08,6.412 14.197,6.412c9.584,-0 17.366,-7.782 17.366,-17.367c0,-4.435 -1.667,-8.485 -4.41,-11.554c-4.357,-7.515 -11.642,-16.201 -16.464,-21.023c-0.689,-0.69 -5.149,-4.944 -14.269,-5.379c-15.381,-0.732 -88.038,0.292 -97.246,0.292c-2.997,0 -14.723,-1.349 -20.511,-0.739c-6.653,0.702 -11.002,3.633 -13.194,5.826c-4.409,4.409 -11.538,8.12 -17.658,12.734Zm169.512,2.764c-0.872,-0.179 -1.902,-0.287 -3.126,-0.287c1.067,0 2.113,0.097 3.126,0.287Z"/><path d="M843.184,342.69c0,2.225 -1.449,13.211 0,14.659c8.852,8.853 12.649,35.203 21.426,43.98c3.536,3.536 10.821,10.366 13.532,15.787c1.56,3.121 -0.301,6.165 1.127,9.021c15.052,30.104 23.792,90.324 47.362,113.895" style="fill-opacity:0;"/><path d="M861.572,423.181c0.203,3.091 0.744,7.881 2.164,10.723c8.786,17.57 15.217,45.736 24.024,70.37c7.005,19.595 15.649,37.095 26.592,48.038c6.777,6.777 17.782,6.777 24.559,-0c6.778,-6.778 6.778,-17.783 0,-24.56c-10.212,-10.212 -16.549,-28.684 -22.626,-47.543c-6.941,-21.543 -13.005,-43.81 -20.319,-59.425c-0.167,-3.092 -0.693,-8.237 -2.291,-11.435c-3.434,-6.867 -12.306,-15.821 -16.785,-20.3c-1.32,-1.32 -2.054,-3.629 -3.06,-6.06c-1.931,-4.664 -3.68,-9.943 -5.531,-14.918c-2.401,-6.454 -5.161,-12.42 -8.214,-17.128c0.194,-2.929 0.465,-7.259 0.465,-8.253c0,-9.585 -7.781,-17.367 -17.366,-17.367c-9.585,0 -17.366,7.782 -17.366,17.367c-0,2.025 -0.888,10.435 -0.466,14.56c0.645,6.311 3.535,10.362 5.552,12.379c1.341,1.341 2.096,3.671 3.114,6.123c1.936,4.666 3.685,9.939 5.528,14.901c3.56,9.584 7.901,18.072 12.784,22.955c2.232,2.232 6.758,6.023 9.242,9.573Z"/><path d="M710.119,377.648c-1.808,1.265 -3.997,35.985 -2.255,39.468c14.602,29.205 24.702,61.701 34.958,92.469c4.407,13.222 23.968,44.41 32.702,57.511c3.752,5.627 2.562,15.273 5.638,21.426c1.953,3.905 7.894,12.657 7.894,16.915" style="fill-opacity:0;"/><path d="M760.673,576.121c0.146,0.806 0.782,4.355 1.074,6.343c0.736,5.019 1.889,9.838 3.882,13.824c1.197,2.393 5.347,9.942 6.229,11.542c1.163,8.454 8.425,14.973 17.198,14.973c9.585,-0 17.366,-7.782 17.366,-17.366c0,-3.099 -0.844,-7.297 -2.788,-11.746c-1.992,-4.559 -5.483,-10.024 -6.939,-12.936c-1.147,-2.293 -0.847,-5.462 -1.321,-8.31c-0.938,-5.633 -2.634,-10.833 -5.4,-14.982c-8.127,-12.19 -26.576,-41.067 -30.677,-53.37c-10.183,-30.549 -20.284,-62.737 -34.513,-91.933l1.597,-28.43c1.931,-5.173 1.369,-11.179 -2.035,-16.041c-5.496,-7.853 -16.334,-9.765 -24.186,-4.269c-1.478,1.036 -6.853,6.072 -8.315,15.937c-1.269,8.558 -2.299,26.435 -1.877,34.825c0.27,5.39 1.569,9.112 2.363,10.7c14.239,28.478 24.015,60.193 34.015,90.194c4.647,13.941 24.803,46.694 34.327,61.045Z"/><path d="M1025.87,562.585c0,15.783 -21.354,23.609 -31.574,33.83c-3.54,3.54 -6.237,9.321 -10.149,11.277c-15.022,7.511 -34.316,11.762 -46.235,23.681c-1.542,1.542 -6.257,1.746 -7.894,3.383c-0.563,0.564 0.564,2.819 0,3.383c-3.123,3.124 -8.871,4.36 -12.404,7.894c-6.238,6.237 -12.231,13.358 -19.17,20.298c-4.1,4.099 -74.367,6.825 -78.937,2.255c-5.688,-5.688 22.073,-37.86 23.681,-39.468c7.952,-7.953 46.902,-7.664 58.639,-13.532c9.417,-4.709 17.57,-15.315 24.808,-22.554c2.661,-2.661 2,-6.51 4.511,-9.021c22.598,-22.598 43.113,-48.49 81.192,-48.49" style="fill-opacity:0;"/><path d="M912.79,582.378c-5.591,5.981 -11.542,14.079 -18.734,17.675c-2.162,1.081 -5.803,1.524 -9.931,2.177c-9.643,1.527 -21.255,2.693 -30.424,4.544c-10.668,2.154 -18.816,6.083 -22.797,10.064c-1.516,1.516 -22.512,26.258 -27.516,39.457c-4.302,11.348 -0.776,19.96 3.835,24.571c1.748,1.748 5.046,4.244 10.492,5.56c5.292,1.279 17.129,2.005 30.521,1.887c18.536,-0.165 40.263,-1.664 49.565,-3.56c7.151,-1.457 11.297,-4.521 12.919,-6.142c6.825,-6.825 12.734,-13.826 18.864,-19.986c0.642,-0.331 3.878,-2.003 5.475,-2.89c2.759,-1.533 5.214,-3.294 7.235,-5.316c0.602,-0.602 1.158,-1.707 1.653,-3.083c2.538,-1.195 5.149,-2.592 6.241,-3.683c4.435,-4.435 10.388,-7.2 16.483,-9.798c8.519,-3.631 17.427,-6.724 25.238,-10.63c2.965,-1.482 5.78,-3.673 8.332,-6.48c2.182,-2.401 4.037,-5.756 6.33,-8.05c6.006,-6.006 15.979,-11.114 22.963,-17.621c8.456,-7.879 13.699,-17.26 13.699,-28.489c-0,-9.297 -7.322,-16.898 -16.509,-17.344c1.879,-2.774 2.977,-6.12 2.977,-9.72c-0,-9.585 -7.782,-17.366 -17.367,-17.366c-43.381,-0 -67.727,27.832 -93.472,53.576c-2.576,2.577 -4.962,7.917 -6.072,10.647Zm-5.604,49.77c-7.595,2.896 -20.857,4.879 -33.766,6.631c-6.57,0.891 -16.14,3.079 -18.809,3.705l-0.293,0.386c-0.787,1.075 -1.575,2.15 -2.362,3.225l-4.238,5.895l41.768,-1.353c5.577,-5.828 10.625,-11.665 15.844,-16.884c0.519,-0.519 1.151,-1.061 1.856,-1.605Zm104.269,-79.251c-31.289,0.409 -47.785,22.768 -66.386,41.714c-1.129,2.785 -3.491,8.034 -6.158,10.701c-3.601,3.601 -7.472,7.832 -11.583,11.924l0.521,-0.221c12.826,-11.349 31.632,-16.673 47.08,-24.157c1.192,-1.612 4.875,-6.515 7.083,-8.723c4.686,-4.686 11.321,-9.056 17.707,-13.624c2.498,-1.786 4.954,-3.601 6.956,-5.644c0.736,-0.752 1.825,-1.241 1.825,-2.282c-0,-3.586 1.089,-6.919 2.955,-9.688Z"/><path d="M553.373,550.744c11.442,-0 28.239,15.881 32.703,24.808c1.554,3.109 -0,11.107 -0,14.66" style="fill-opacity:0;"/><path d="M552.91,568.098c0.433,0.195 3.829,1.74 5.655,3.022c4.239,2.975 8.38,6.87 10.717,10.151c-0.205,2.446 -0.573,7.179 -0.573,8.941c0,9.585 7.782,17.366 17.367,17.366c9.584,0 17.366,-7.781 17.366,-17.366c-0,-2.571 0.76,-7.393 0.682,-11.157c-0.096,-4.589 -1.144,-8.526 -2.515,-11.269c-3.568,-7.136 -12.782,-17.86 -23.09,-25.095c-8.449,-5.93 -17.65,-9.314 -25.146,-9.314c-9.585,0 -17.366,7.782 -17.366,17.367c-0,9.429 7.531,17.113 16.903,17.354Z"/><path d="M704.481,777.405c-0,18.406 26.26,26.261 37.213,37.213c5.796,5.796 9.924,15.563 15.787,21.426c2.771,2.771 3.051,8.689 5.639,11.276c7.487,7.488 11.985,13.822 18.042,25.937c1.042,2.083 0.389,19.17 2.256,19.17" style="fill-opacity:0;"/><path d="M743.774,846.773c1.082,2.568 4.449,10.21 7.066,12.827c5.63,5.63 9.145,10.513 13.5,18.915c0.119,2.998 0.423,9.905 0.819,13.104c0.416,3.366 1.254,5.958 1.955,7.502c3.994,8.805 10.996,10.672 16.304,10.672c9.584,0 17.366,-7.781 17.366,-17.366c-0,-2.246 -0.427,-4.392 -1.21,-6.362c-0.135,-2.964 -0.472,-9.8 -0.745,-12.518c-0.393,-3.93 -1.459,-6.706 -2.134,-8.057c-6.716,-13.432 -11.87,-20.775 -19.818,-28.949c-1.194,-2.837 -4.409,-10.071 -7.116,-12.777c-5.863,-5.863 -9.991,-15.629 -15.787,-21.426c-5.123,-5.122 -12.967,-9.865 -20.707,-14.85c-3.091,-1.991 -6.161,-4.036 -8.687,-6.385c-1.218,-1.133 -2.733,-2.04 -2.733,-3.698c0,-9.585 -7.781,-17.366 -17.366,-17.366c-9.585,-0 -17.367,7.781 -17.367,17.366c0,12.609 6.258,22.83 16.094,31.153c8.245,6.977 19.916,12.05 26.206,18.34c5.312,5.312 9.223,13.959 14.36,19.875Zm40.795,28.33c1.946,0.127 3.806,0.575 5.526,1.292c-1.793,-0.771 -3.644,-1.182 -5.526,-1.292Z"/><path d="M899.567,1057.07c16.111,-0 58.639,-7.312 58.639,-20.298" style="fill-opacity:0;"/><path d="M942.095,1030.29c-5.977,1.714 -33.319,9.409 -42.528,9.409c-9.584,0 -17.366,7.782 -17.366,17.367c0,9.584 7.782,17.366 17.366,17.366c13.04,0 41.011,-4.313 56.641,-11.949c13.362,-6.528 19.365,-16.73 19.365,-25.715c-0,-9.585 -7.782,-17.367 -17.367,-17.367c-7.295,0 -13.545,4.508 -16.111,10.889Z"/><path d="M689.821,1052.56c3.935,5.2 50.94,5.638 62.022,5.638" style="fill-opacity:0;"/><path d="M698.825,1037.71c-5.905,-3.582 -13.645,-3.419 -19.483,0.999c-7.643,5.784 -9.153,16.685 -3.369,24.328c2.107,2.783 7.822,7.299 17.46,9.156c15.263,2.94 49.015,3.369 58.41,3.369c9.585,-0 17.366,-7.782 17.366,-17.367c0,-9.584 -7.781,-17.366 -17.366,-17.366c-8.329,0 -47.457,-2.728 -53.018,-3.119Z"/><path d="M377.739,647.749c-0,31.901 8.457,63.271 8.457,93.032" style="fill-opacity:0;"/><path d="M360.373,647.749c-0,31.901 8.457,63.271 8.457,93.032c0,9.585 7.782,17.367 17.366,17.367c9.585,-0 17.367,-7.782 17.367,-17.367c-0,-29.761 -8.458,-61.131 -8.458,-93.032c0,-9.585 -7.781,-17.367 -17.366,-17.367c-9.585,0 -17.366,7.782 -17.366,17.367Z"/><path d="M408.75,667.483c-0,41.726 31.011,61.655 31.011,78.937" style="fill-opacity:0;"/><path d="M391.383,667.483c0,24.787 8.95,43.181 18.161,57.864c3.776,6.019 7.564,11.287 10.396,16.11c1.104,1.879 2.454,3.323 2.454,4.963c0,9.584 7.782,17.366 17.367,17.366c9.584,0 17.366,-7.782 17.366,-17.366c-0,-7.949 -3.397,-16.597 -9.388,-26.068c-7.803,-12.338 -21.623,-27.87 -21.623,-52.869c0,-9.585 -7.782,-17.366 -17.366,-17.366c-9.585,-0 -17.367,7.781 -17.367,17.366Z"/><path d="M417.207,774.611l0,76.118" style="fill:none;"/><path d="M399.841,774.611l-0,76.118c-0,9.585 7.781,17.366 17.366,17.366c9.585,0 17.367,-7.781 17.367,-17.366l-0,-76.118c-0,-9.584 -7.782,-17.366 -17.367,-17.366c-9.585,0 -17.366,7.782 -17.366,17.366Z"/><path d="M380.558,780.25c0,13.596 -19.861,84.575 8.458,84.575" style="fill-opacity:0;"/><path d="M392.53,847.816c-0.48,-3.683 -1.502,-12.647 -1.043,-18.91c1.463,-19.959 6.437,-41.678 6.437,-48.656c0,-9.585 -7.781,-17.367 -17.366,-17.367c-9.585,0 -17.366,7.782 -17.366,17.367c-0,9.932 -9.632,49.253 -5.588,71.925c3.395,19.04 14.038,30.016 31.412,30.016c9.584,0 17.366,-7.781 17.366,-17.366c-0,-8.381 -5.95,-15.383 -13.852,-17.009Z"/><path d="M453.856,859.187c0,36.203 6.381,41.545 -14.095,62.021c-3.106,3.106 -0.74,11.277 -5.639,11.277" style="fill-opacity:0;"/><path d="M422.014,920.046c-3.244,3.152 -5.258,7.562 -5.258,12.439c-0,9.585 7.782,17.366 17.366,17.366c9.255,0 14.657,-4.338 18.113,-11.022c0.883,-1.708 1.811,-5.443 2.374,-7.961c21.743,-22.564 16.614,-29.587 16.614,-71.681c-0,-9.585 -7.782,-17.367 -17.367,-17.367c-9.584,0 -17.366,7.782 -17.366,17.367c0,11.144 0.581,19.439 0.838,26.158c0.187,4.877 0.488,8.453 -0.797,11.92c-1.34,3.618 -4.277,6.89 -9.05,11.663c-2.21,2.21 -4.192,7.241 -5.467,11.118Zm11.383,-4.909l0.725,-0.018c-0.246,-0 -0.487,0.005 -0.725,0.018Z"/></g></svg>